<svg width="700" height="120" viewBox="0 0 700 120" xmlns="http://www.w3.org/2000/svg">
  <style>
    .letter {
      fill: #0F9D58;
    }
    .antenna {
      stroke: #0F9D58;
      stroke-width: 3;
      fill: none;
    }
  </style>


  <text x="10" y="80" font-family="Roboto" font-size="60" class="letter">Phellcone</text>

  <g transform="translate(235,112) scale(0.05,-0.05)" fill="#0F9D58">
    <path d="M780 1635 c-19 -23 -8 -50 22 -53 19 -2 28 2 33 18 12 39 -29 66 -55 35z"/>
    <path d="M1295 1619 c-4 -12 -2 -26 3 -31 7 -7 -7 -47 -46 -127 -31 -64 -57 -117 -57 -118 -1 -3 -239 -32 -242 -30 -1 2 -29 60 -63 131 -33 71 -63 126 -66 123 -3 -2 18 -60 46 -127 27 -67 50 -127 50 -131 0 -5 -18 -9 -40 -9 -78 0 -137 -19 -169 -56 -53 -60 -57 -92 -37 -311 20 -234 32 -268 109 -318 35 -22 41 -16 23 21 -8 17 -21 112 -32 229 l-17 200 23 53 c38 88 46 91 344 128 144 19 284 34 311 34 l50 1 -32 29 c-37 33 -96 52 -142 45 -17 -3 -44 -7 -60 -10 l-29 -4 47 114 c25 63 51 115 57 115 20 0 36 28 29 50 -9 28 -51 27 -60 -1z m-435 -367 c-37 -25 -95 -84 -109 -109 -22 -44 -29 -115 -20 -231 5 -65 11 -133 15 -152 4 -26 3 -32 -6 -24 -12 12 -27 135 -37 309 -5 92 -3 116 11 143 21 40 51 60 107 71 63 13 67 12 39 -7z"/>
    <path d="M950 1060 c0 -40 0 -40 40 -40 l40 0 0 -169 0 -169 40 -4 40 -4 0 176 0 176 40 -4 40 -4 0 41 0 41 -120 0 -120 0 0 -40z m144 -20 c-21 -22 -48 -19 -58 6 -4 11 4 14 37 14 l41 0 -20 -20z"/>
    <path d="M1226 1058 c9 -24 40 -110 69 -193 29 -82 56 -158 60 -168 6 -14 17 -17 48 -15 l40 3 73 205 c40 113 74 206 74 208 0 2 -19 2 -42 0 l-41 -3 -51 -147 c-28 -82 -53 -148 -56 -148 -3 1 -27 68 -55 150 l-50 150 -42 0 -42 0 15 -42z m205 -290 c-23 -54 -38 -58 -56 -14 -19 46 -19 49 6 36 16 -9 25 -8 42 4 12 8 23 15 24 15 1 1 -6 -18 -16 -41z"/>
  </g>
</svg>
